<svg xmlns="http://www.w3.org/2000/svg" viewBox="0 0 600 600" width="600" height="600">
  <defs>
    <!-- Gradients -->
    <linearGradient id="blueGrad" x1="0%" y1="0%" x2="100%" y2="100%">
      <stop offset="0%" stop-color="#4A90D9"/>
      <stop offset="100%" stop-color="#2563B0"/>
    </linearGradient>
    <linearGradient id="redGrad" x1="0%" y1="0%" x2="100%" y2="100%">
      <stop offset="0%" stop-color="#E53935"/>
      <stop offset="100%" stop-color="#B71C1C"/>
    </linearGradient>
    <linearGradient id="yellowGrad" x1="0%" y1="0%" x2="100%" y2="100%">
      <stop offset="0%" stop-color="#D4A017"/>
      <stop offset="100%" stop-color="#B8860B"/>
    </linearGradient>
    <linearGradient id="greenGrad" x1="0%" y1="0%" x2="100%" y2="100%">
      <stop offset="0%" stop-color="#2E9E4F"/>
      <stop offset="100%" stop-color="#1B6B32"/>
    </linearGradient>
    <radialGradient id="whiteCircle" cx="40%" cy="35%" r="65%">
      <stop offset="0%" stop-color="#ffffff"/>
      <stop offset="100%" stop-color="#f0f0f0"/>
    </radialGradient>
    <radialGradient id="centerGrad" cx="40%" cy="35%" r="65%">
      <stop offset="0%" stop-color="#e8e8e8"/>
      <stop offset="100%" stop-color="#c0c0c0"/>
    </radialGradient>
    <filter id="boardShadow">
      <feDropShadow dx="0" dy="4" stdDeviation="8" flood-color="rgba(0,0,80,0.35)"/>
    </filter>
    <filter id="cellShadow">
      <feDropShadow dx="0" dy="2" stdDeviation="2" flood-color="rgba(0,0,0,0.15)"/>
    </filter>
  </defs>

  <!-- ================================ -->
  <!--        BOARD BACKGROUND          -->
  <!-- ================================ -->
  <rect x="5" y="5" width="590" height="590"
        rx="20" ry="20"
        fill="#E8ECF0"
        stroke="#2255CC"
        stroke-width="4"
        filter="url(#boardShadow)"/>

  <!-- Board inner -->
  <rect x="10" y="10" width="580" height="580"
        rx="16" ry="16"
        fill="#DDE3EA"/>

  <!-- ================================ -->
  <!--   CELL SIZE = 40px               -->
  <!--   BOARD = 15x15 cells            -->
  <!--   START X=10, START Y=10         -->
  <!--   Each cell = 40x40             -->
  <!-- ================================ -->

  <!-- ================================ -->
  <!--    BLUE HOME (Top-Left)          -->
  <!--    Rows 0-5, Cols 0-5            -->
  <!-- ================================ -->
  <rect x="10" y="10" width="240" height="240"
        rx="14" ry="14"
        fill="url(#blueGrad)"/>
  <rect x="16" y="16" width="228" height="228"
        rx="10" ry="10"
        fill="none"
        stroke="rgba(255,255,255,0.25)"
        stroke-width="2.5"/>

  <!-- Blue Score Circle -->
  <circle cx="130" cy="130" r="75" fill="url(#whiteCircle)" filter="url(#cellShadow)"/>
  <text x="130" y="115" text-anchor="middle"
        font-family="Arial" font-size="20" font-weight="600" fill="#2563B0">Score</text>
  <text x="130" y="152" text-anchor="middle"
        font-family="Arial" font-size="42" font-weight="bold" fill="#2563B0">0</text>

  <!-- Blue pulse -->
  <circle cx="130" cy="130" r="75" fill="none" stroke="rgba(255,255,255,0.5)" stroke-width="3">
    <animate attributeName="r" values="75;85;75" dur="2s" repeatCount="indefinite"/>
    <animate attributeName="opacity" values="0.5;0;0.5" dur="2s" repeatCount="indefinite"/>
  </circle>

  <!-- ================================ -->
  <!--    RED HOME (Top-Right)          -->
  <!--    Rows 0-5, Cols 9-14           -->
  <!-- ================================ -->
  <rect x="350" y="10" width="240" height="240"
        rx="14" ry="14"
        fill="url(#redGrad)"/>
  <rect x="356" y="16" width="228" height="228"
        rx="10" ry="10"
        fill="none"
        stroke="rgba(255,255,255,0.2)"
        stroke-width="2.5"/>

  <!-- Red Score Circle -->
  <circle cx="470" cy="130" r="75" fill="url(#whiteCircle)" filter="url(#cellShadow)"/>
  <text x="470" y="115" text-anchor="middle"
        font-family="Arial" font-size="20" font-weight="600" fill="#C62828">Score</text>
  <text x="470" y="152" text-anchor="middle"
        font-family="Arial" font-size="42" font-weight="bold" fill="#C62828">0</text>

  <!-- Red pulse -->
  <circle cx="470" cy="130" r="75" fill="none" stroke="rgba(255,255,255,0.5)" stroke-width="3">
    <animate attributeName="r" values="75;85;75" dur="2s" begin="0.5s" repeatCount="indefinite"/>
    <animate attributeName="opacity" values="0.5;0;0.5" dur="2s" begin="0.5s" repeatCount="indefinite"/>
  </circle>

  <!-- ================================ -->
  <!--   YELLOW HOME (Bottom-Left)      -->
  <!--   Rows 9-14, Cols 0-5           -->
  <!-- ================================ -->
  <rect x="10" y="350" width="240" height="240"
        rx="14" ry="14"
        fill="url(#yellowGrad)"/>
  <rect x="16" y="356" width="228" height="228"
        rx="10" ry="10"
        fill="none"
        stroke="rgba(255,255,255,0.2)"
        stroke-width="2.5"/>

  <!-- Yellow Score Circle -->
  <circle cx="130" cy="470" r="75" fill="url(#whiteCircle)" filter="url(#cellShadow)"/>
  <text x="130" y="455" text-anchor="middle"
        font-family="Arial" font-size="20" font-weight="600" fill="#B8860B">Score</text>
  <text x="130" y="492" text-anchor="middle"
        font-family="Arial" font-size="42" font-weight="bold" fill="#B8860B">0</text>

  <!-- Yellow pulse -->
  <circle cx="130" cy="470" r="75" fill="none" stroke="rgba(255,255,255,0.5)" stroke-width="3">
    <animate attributeName="r" values="75;85;75" dur="2s" begin="1s" repeatCount="indefinite"/>
    <animate attributeName="opacity" values="0.5;0;0.5" dur="2s" begin="1s" repeatCount="indefinite"/>
  </circle>

  <!-- ================================ -->
  <!--   GREEN HOME (Bottom-Right)      -->
  <!--   Rows 9-14, Cols 9-14          -->
  <!-- ================================ -->
  <rect x="350" y="350" width="240" height="240"
        rx="14" ry="14"
        fill="url(#greenGrad)"/>
  <rect x="356" y="356" width="228" height="228"
        rx="10" ry="10"
        fill="none"
        stroke="rgba(255,255,255,0.2)"
        stroke-width="2.5"/>

  <!-- Green Score Circle -->
  <circle cx="470" cy="470" r="75" fill="url(#whiteCircle)" filter="url(#cellShadow)"/>
  <text x="470" y="455" text-anchor="middle"
        font-family="Arial" font-size="20" font-weight="600" fill="#1B6B32">Score</text>
  <text x="470" y="492" text-anchor="middle"
        font-family="Arial" font-size="42" font-weight="bold" fill="#1B6B32">0</text>

  <!-- Green pulse -->
  <circle cx="470" cy="470" r="75" fill="none" stroke="rgba(255,255,255,0.5)" stroke-width="3">
    <animate attributeName="r" values="75;85;75" dur="2s" begin="1.5s" repeatCount="indefinite"/>
    <animate attributeName="opacity" values="0.5;0;0.5" dur="2s" begin="1.5s" repeatCount="indefinite"/>
  </circle>

  <!-- ================================ -->
  <!--     PATH GRID BACKGROUND         -->
  <!--   Middle columns + rows          -->
  <!-- ================================ -->

  <!-- Horizontal strip background (rows 6-8, all cols) -->
  <rect x="10" y="250" width="580" height="120" fill="white" opacity="0.6"/>

  <!-- Vertical strip background (cols 6-8, all rows) -->
  <rect x="250" y="10" width="120" height="580" fill="white" opacity="0.6"/>

  <!-- ================================ -->
  <!--    ALL PATH CELLS - WHITE BASE   -->
  <!-- ================================ -->

  <!-- ===== TOP PATH (Blue goes DOWN Col 6, rows 0-5) ===== -->
  <!-- Col 6 = x:250, Col 7 = x:290, Col 8 = x:330 -->
  <!-- Row 0-5 = y:10 to y:210 -->

  <!-- Row 0, Cols 6-8 -->
  <rect x="250" y="10" width="40" height="40" fill="white" stroke="#ccc" stroke-width="0.5"/>
  <rect x="290" y="10" width="40" height="40" fill="white" stroke="#ccc" stroke-width="0.5"/>
  <rect x="330" y="10" width="40" height="40" fill="white" stroke="#ccc" stroke-width="0.5"/>

  <!-- Row 1, Cols 6-8 -->
  <rect x="250" y="50" width="40" height="40" fill="white" stroke="#ccc" stroke-width="0.5"/>
  <rect x="290" y="50" width="40" height="40" fill="white" stroke="#ccc" stroke-width="0.5"/>
  <rect x="330" y="50" width="40" height="40" fill="white" stroke="#ccc" stroke-width="0.5"/>

  <!-- Row 2, Cols 6-8 -->
  <rect x="250" y="90" width="40" height="40" fill="white" stroke="#ccc" stroke-width="0.5"/>
  <rect x="290" y="90" width="40" height="40" fill="white" stroke="#ccc" stroke-width="0.5"/>
  <rect x="330" y="90" width="40" height="40" fill="white" stroke="#ccc" stroke-width="0.5"/>

  <!-- Row 3, Cols 6-8 -->
  <rect x="250" y="130" width="40" height="40" fill="white" stroke="#ccc" stroke-width="0.5"/>
  <rect x="290" y="130" width="40" height="40" fill="white" stroke="#ccc" stroke-width="0.5"/>
  <rect x="330" y="130" width="40" height="40" fill="white" stroke="#ccc" stroke-width="0.5"/>

  <!-- Row 4, Cols 6-8 -->
  <rect x="250" y="170" width="40" height="40" fill="white" stroke="#ccc" stroke-width="0.5"/>
  <rect x="290" y="170" width="40" height="40" fill="white" stroke="#ccc" stroke-width="0.5"/>
  <rect x="330" y="170" width="40" height="40" fill="white" stroke="#ccc" stroke-width="0.5"/>

  <!-- Row 5, Cols 6-8 -->
  <rect x="250" y="210" width="40" height="40" fill="white" stroke="#ccc" stroke-width="0.5"/>
  <rect x="290" y="210" width="40" height="40" fill="white" stroke="#ccc" stroke-width="0.5"/>
  <rect x="330" y="210" width="40" height="40" fill="white" stroke="#ccc" stroke-width="0.5"/>

  <!-- ===== BOTTOM PATH (Yellow goes UP, Col 6-8, rows 9-14) ===== -->
  <!-- Row 9, Cols 6-8 -->
  <rect x="250" y="370" width="40" height="40" fill="white" stroke="#ccc" stroke-width="0.5"/>
  <rect x="290" y="370" width="40" height="40" fill="white" stroke="#ccc" stroke-width="0.5"/>
  <rect x="330" y="370" width="40" height="40" fill="white" stroke="#ccc" stroke-width="0.5"/>

  <!-- Row 10, Cols 6-8 -->
  <rect x="250" y="410" width="40" height="40" fill="white" stroke="#ccc" stroke-width="0.5"/>
  <rect x="290" y="410" width="40" height="40" fill="white" stroke="#ccc" stroke-width="0.5"/>
  <rect x="330" y="410" width="40" height="40" fill="white" stroke="#ccc" stroke-width="0.5"/>

  <!-- Row 11, Cols 6-8 -->
  <rect x="250" y="450" width="40" height="40" fill="white" stroke="#ccc" stroke-width="0.5"/>
  <rect x="290" y="450" width="40" height="40" fill="white" stroke="#ccc" stroke-width="0.5"/>
  <rect x="330" y="450" width="40" height="40" fill="white" stroke="#ccc" stroke-width="0.5"/>

  <!-- Row 12, Cols 6-8 -->
  <rect x="250" y="490" width="40" height="40" fill="white" stroke="#ccc" stroke-width="0.5"/>
  <rect x="290" y="490" width="40" height="40" fill="white" stroke="#ccc" stroke-width="0.5"/>
  <rect x="330" y="490" width="40" height="40" fill="white" stroke="#ccc" stroke-width="0.5"/>

  <!-- Row 13, Cols 6-8 -->
  <rect x="250" y="530" width="40" height="40" fill="white" stroke="#ccc" stroke-width="0.5"/>
  <rect x="290" y="530" width="40" height="40" fill="white" stroke="#ccc" stroke-width="0.5"/>
  <rect x="330" y="530" width="40" height="40" fill="white" stroke="#ccc" stroke-width="0.5"/>

  <!-- Row 14, Cols 6-8 -->
  <rect x="250" y="570" width="40" height="20" fill="white" stroke="#ccc" stroke-width="0.5"/>
  <rect x="290" y="570" width="40" height="20" fill="white" stroke="#ccc" stroke-width="0.5"/>
  <rect x="330" y="570" width="40" height="20" fill="white" stroke="#ccc" stroke-width="0.5"/>

  <!-- ===== LEFT PATH (Yellow/Blue rows 6-8, Cols 0-5) ===== -->
  <!-- Row 6, Cols 0-5 -->
  <rect x="10" y="250" width="40" height="40" fill="white" stroke="#ccc" stroke-width="0.5"/>
  <rect x="50" y="250" width="40" height="40" fill="white" stroke="#ccc" stroke-width="0.5"/>
  <rect x="90" y="250" width="40" height="40" fill="white" stroke="#ccc" stroke-width="0.5"/>
  <rect x="130" y="250" width="40" height="40" fill="white" stroke="#ccc" stroke-width="0.5"/>
  <rect x="170" y="250" width="40" height="40" fill="white" stroke="#ccc" stroke-width="0.5"/>
  <rect x="210" y="250" width="40" height="40" fill="white" stroke="#ccc" stroke-width="0.5"/>

  <!-- Row 7, Cols 0-5 -->
  <rect x="10" y="290" width="40" height="40" fill="white" stroke="#ccc" stroke-width="0.5"/>
  <rect x="50" y="290" width="40" height="40" fill="white" stroke="#ccc" stroke-width="0.5"/>
  <rect x="90" y="290" width="40" height="40" fill="white" stroke="#ccc" stroke-width="0.5"/>
  <rect x="130" y="290" width="40" height="40" fill="white" stroke="#ccc" stroke-width="0.5"/>
  <rect x="170" y="290" width="40" height="40" fill="white" stroke="#ccc" stroke-width="0.5"/>
  <rect x="210" y="290" width="40" height="40" fill="white" stroke="#ccc" stroke-width="0.5"/>

  <!-- Row 8, Cols 0-5 -->
  <rect x="10" y="330" width="40" height="40" fill="white" stroke="#ccc" stroke-width="0.5"/>
  <rect x="50" y="330" width="40" height="40" fill="white" stroke="#ccc" stroke-width="0.5"/>
  <rect x="90" y="330" width="40" height="40" fill="white" stroke="#ccc" stroke-width="0.5"/>
  <rect x="130" y="330" width="40" height="40" fill="white" stroke="#ccc" stroke-width="0.5"/>
  <rect x="170" y="330" width="40" height="40" fill="white" stroke="#ccc" stroke-width="0.5"/>
  <rect x="210" y="330" width="40" height="40" fill="white" stroke="#ccc" stroke-width="0.5"/>

  <!-- ===== RIGHT PATH (rows 6-8, Cols 9-14) ===== -->
  <!-- Row 6, Cols 9-14 -->
  <rect x="370" y="250" width="40" height="40" fill="white" stroke="#ccc" stroke-width="0.5"/>
  <rect x="410" y="250" width="40" height="40" fill="white" stroke="#ccc" stroke-width="0.5"/>
  <rect x="450" y="250" width="40" height="40" fill="white" stroke="#ccc" stroke-width="0.5"/>
  <rect x="490" y="250" width="40" height="40" fill="white" stroke="#ccc" stroke-width="0.5"/>
  <rect x="530" y="250" width="40" height="40" fill="white" stroke="#ccc" stroke-width="0.5"/>
  <rect x="570" y="250" width="20" height="40" fill="white" stroke="#ccc" stroke-width="0.5"/>

  <!-- Row 7, Cols 9-14 -->
  <rect x="370" y="290" width="40" height="40" fill="white" stroke="#ccc" stroke-width="0.5"/>
  <rect x="410" y="290" width="40" height="40" fill="white" stroke="#ccc" stroke-width="0.5"/>
  <rect x="450" y="290" width="40" height="40" fill="white" stroke="#ccc" stroke-width="0.5"/>
  <rect x="490" y="290" width="40" height="40" fill="white" stroke="#ccc" stroke-width="0.5"/>
  <rect x="530" y="290" width="40" height="40" fill="white" stroke="#ccc" stroke-width="0.5"/>
  <rect x="570" y="290" width="20" height="40" fill="white" stroke="#ccc" stroke-width="0.5"/>

  <!-- Row 8, Cols 9-14 -->
  <rect x="370" y="330" width="40" height="40" fill="white" stroke="#ccc" stroke-width="0.5"/>
  <rect x="410" y="330" width="40" height="40" fill="white" stroke="#ccc" stroke-width="0.5"/>
  <rect x="450" y="330" width="40" height="40" fill="white" stroke="#ccc" stroke-width="0.5"/>
  <rect x="490" y="330" width="40" height="40" fill="white" stroke="#ccc" stroke-width="0.5"/>
  <rect x="530" y="330" width="40" height="40" fill="white" stroke="#ccc" stroke-width="0.5"/>
  <rect x="570" y="330" width="20" height="40" fill="white" stroke="#ccc" stroke-width="0.5"/>

  <!-- ================================ -->
  <!--   COLORED PATH LANES             -->
  <!-- ================================ -->

  <!-- BLUE PATH LANE - Col 7 going DOWN (rows 0-5) = Home column -->
  <rect x="290" y="10"  width="40" height="40" fill="#4A90D9" opacity="0.7" stroke="#2563B0" stroke-width="0.5"/>
  <rect x="290" y="50"  width="40" height="40" fill="#4A90D9" opacity="0.7" stroke="#2563B0" stroke-width="0.5"/>
  <rect x="290" y="90"  width="40" height="40" fill="#4A90D9" opacity="0.7" stroke="#2563B0" stroke-width="0.5"/>
  <rect x="290" y="130" width="40" height="40" fill="#4A90D9" opacity="0.7" stroke="#2563B0" stroke-width="0.5"/>
  <rect x="290" y="170" width="40" height="40" fill="#4A90D9" opacity="0.7" stroke="#2563B0" stroke-width="0.5"/>
  <!-- Blue entry cell (row 6, col 6) - safe star -->
  <rect x="250" y="250" width="40" height="40" fill="#4A90D9" opacity="0.8" stroke="#2563B0" stroke-width="1"/>
  <!-- Blue row 7 going LEFT -->
  <rect x="10"  y="290" width="40" height="40" fill="#4A90D9" opacity="0.3" stroke="#2563B0" stroke-width="0.5"/>

  <!-- RED PATH LANE - Row 7 going RIGHT (cols 9-14) = Home column -->
  <rect x="370" y="290" width="40" height="40" fill="#E53935" opacity="0.7" stroke="#B71C1C" stroke-width="0.5"/>
  <rect x="410" y="290" width="40" height="40" fill="#E53935" opacity="0.7" stroke="#B71C1C" stroke-width="0.5"/>
  <rect x="450" y="290" width="40" height="40" fill="#E53935" opacity="0.7" stroke="#B71C1C" stroke-width="0.5"/>
  <rect x="490" y="290" width="40" height="40" fill="#E53935" opacity="0.7" stroke="#B71C1C" stroke-width="0.5"/>
  <rect x="530" y="290" width="40" height="40" fill="#E53935" opacity="0.7" stroke="#B71C1C" stroke-width="0.5"/>
  <!-- Red entry cell (row 8, col 8) -->
  <rect x="330" y="250" width="40" height="40" fill="#E53935" opacity="0.8" stroke="#B71C1C" stroke-width="1"/>
  <!-- Red row 6 going UP -->
  <rect x="330" y="10" width="40" height="40" fill="#E53935" opacity="0.3" stroke="#B71C1C" stroke-width="0.5"/>

  <!-- YELLOW PATH LANE - Col 7 going UP (rows 9-14) = Home column -->
  <rect x="290" y="370" width="40" height="40" fill="#D4A017" opacity="0.7" stroke="#B8860B" stroke-width="0.5"/>
  <rect x="290" y="410" width="40" height="40" fill="#D4A017" opacity="0.7" stroke="#B8860B" stroke-width="0.5"/>
  <rect x="290" y="450" width="40" height="40" fill="#D4A017" opacity="0.7" stroke="#B8860B" stroke-width="0.5"/>
  <rect x="290" y="490" width="40" height="40" fill="#D4A017" opacity="0.7" stroke="#B8860B" stroke-width="0.5"/>
  <rect x="290" y="530" width="40" height="40" fill="#D4A017" opacity="0.7" stroke="#B8860B" stroke-width="0.5"/>
  <!-- Yellow entry cell (row 8, col 8) -->
  <rect x="330" y="330" width="40" height="40" fill="#D4A017" opacity="0.8" stroke="#B8860B" stroke-width="1"/>
  <!-- Yellow col 8 going RIGHT -->
  <rect x="570" y="330" width="20" height="40" fill="#D4A017" opacity="0.3" stroke="#B8860B" stroke-width="0.5"/>

  <!-- GREEN PATH LANE - Row 7 going LEFT (cols 0-5) = Home column -->
  <rect x="10"  y="290" width="40" height="40" fill="#2E9E4F" opacity="0.7" stroke="#1B6B32" stroke-width="0.5"/>
  <rect x="50"  y="290" width="40" height="40" fill="#2E9E4F" opacity="0.7" stroke="#1B6B32" stroke-width="0.5"/>
  <rect x="90"  y="290" width="40" height="40" fill="#2E9E4F" opacity="0.7" stroke="#1B6B32" stroke-width="0.5"/>
  <rect x="130" y="290" width="40" height="40" fill="#2E9E4F" opacity="0.7" stroke="#1B6B32" stroke-width="0.5"/>
  <rect x="170" y="290" width="40" height="40" fill="#2E9E4F" opacity="0.7" stroke="#1B6B32" stroke-width="0.5"/>
  <!-- Green entry cell -->
  <rect x="250" y="330" width="40" height="40" fill="#2E9E4F" opacity="0.8" stroke="#1B6B32" stroke-width="1"/>
  <!-- Green col 6 going DOWN -->
  <rect x="250" y="570" width="40" height="20" fill="#2E9E4F" opacity="0.3" stroke="#1B6B32" stroke-width="0.5"/>

  <!-- ================================ -->
  <!--   COMPLETE OUTER PATH CELLS      -->
  <!--   (All white cells on the path)  -->
  <!-- ================================ -->

  <!-- ---- TOP SECTION (Row 0-5, Cols 6 & 8) ---- -->
  <!-- Col 6 (x=250) - Blue path coming down -->
  <rect x="250" y="10"  width="40" height="40" fill="white" stroke="#bbb" stroke-width="0.5"/>
  <rect x="250" y="50"  width="40" height="40" fill="white" stroke="#bbb" stroke-width="0.5"/>
  <rect x="250" y="90"  width="40" height="40" fill="white" stroke="#bbb" stroke-width="0.5"/>
  <rect x="250" y="130" width="40" height="40" fill="white" stroke="#bbb" stroke-width="0.5"/>
  <rect x="250" y="170" width="40" height="40" fill="white" stroke="#bbb" stroke-width="0.5"/>
  <!-- Col 8 (x=330) - Red path coming down -->
  <rect x="330" y="50"  width="40" height="40" fill="white" stroke="#bbb" stroke-width="0.5"/>
  <rect x="330" y="90"  width="40" height="40" fill="white" stroke="#bbb" stroke-width="0.5"/>
  <rect x="330" y="130" width="40" height="40" fill="white" stroke="#bbb" stroke-width="0.5"/>
  <rect x="330" y="170" width="40" height="40" fill="white" stroke="#bbb" stroke-width="0.5"/>
  <rect x="330" y="210" width="40" height="40" fill="white" stroke="#bbb" stroke-width="0.5"/>

  <!-- ---- BOTTOM SECTION (Row 9-14, Cols 6 & 8) ---- -->
  <!-- Col 6 (x=250) - Green path -->
  <rect x="250" y="370" width="40" height="40" fill="white" stroke="#bbb" stroke-width="0.5"/>
  <rect x="250" y="410" width="40" height="40" fill="white" stroke="#bbb" stroke-width="0.5"/>
  <rect x="250" y="450" width="40" height="40" fill="white" stroke="#bbb" stroke-width="0.5"/>
  <rect x="250" y="490" width="40" height="40" fill="white" stroke="#bbb" stroke-width="0.5"/>
  <rect x="250" y="530" width="40" height="40" fill="white" stroke="#bbb" stroke-width="0.5"/>
  <!-- Col 8 (x=330) - Yellow path -->
  <rect x="330" y="370" width="40" height="40" fill="white" stroke="#bbb" stroke-width="0.5"/>
  <rect x="330" y="410" width="40" height="40" fill="white" stroke="#bbb" stroke-width="0.5"/>
  <rect x="330" y="450" width="40" height="40" fill="white" stroke="#bbb" stroke-width="0.5"/>
  <rect x="330" y="490" width="40" height="40" fill="white" stroke="#bbb" stroke-width="0.5"/>
  <rect x="330" y="530" width="40" height="40" fill="white" stroke="#bbb" stroke-width="0.5"/>

  <!-- ---- LEFT SECTION (Rows 6 & 8, Cols 0-5) ---- -->
  <!-- Row 6 (y=250) -->
  <rect x="10"  y="250" width="40" height="40" fill="white" stroke="#bbb" stroke-width="0.5"/>
  <rect x="50"  y="250" width="40" height="40" fill="white" stroke="#bbb" stroke-width="0.5"/>
  <rect x="90"  y="250" width="40" height="40" fill="white" stroke="#bbb" stroke-width="0.5"/>
  <rect x="130" y="250" width="40" height="40" fill="white" stroke="#bbb" stroke-width="0.5"/>
  <rect x="170" y="250" width="40" height="40" fill="white" stroke="#bbb" stroke-width="0.5"/>
  <rect x="210" y="250" width="40" height="40" fill="white" stroke="#bbb" stroke-width="0.5"/>
  <!-- Row 8 (y=330) -->
  <rect x="10"  y="330" width="40" height="40" fill="white" stroke="#bbb" stroke-width="0.5"/>
  <rect x="50"  y="330" width="40" height="40" fill="white" stroke="#bbb" stroke-width="0.5"/>
  <rect x="90"  y="330" width="40" height="40" fill="white" stroke="#bbb" stroke-width="0.5"/>
  <rect x="130" y="330" width="40" height="40" fill="white" stroke="#bbb" stroke-width="0.5"/>
  <rect x="170" y="330" width="40" height="40" fill="white" stroke="#bbb" stroke-width="0.5"/>
  <rect x="210" y="330" width="40" height="40" fill="white" stroke="#bbb" stroke-width="0.5"/>

  <!-- ---- RIGHT SECTION (Rows 6 & 8, Cols 9-14) ---- -->
  <!-- Row 6 (y=250) -->
  <rect x="370" y="250" width="40" height="40" fill="white" stroke="#bbb" stroke-width="0.5"/>
  <rect x="410" y="250" width="40" height="40" fill="white" stroke="#bbb" stroke-width="0.5"/>
  <rect x="450" y="250" width="40" height="40" fill="white" stroke="#bbb" stroke-width="0.5"/>
  <rect x="490" y="250" width="40" height="40" fill="white" stroke="#bbb" stroke-width="0.5"/>
  <rect x="530" y="250" width="40" height="40" fill="white" stroke="#bbb" stroke-width="0.5"/>
  <!-- Row 8 (y=330) -->
  <rect x="370" y="330" width="40" height="40" fill="white" stroke="#bbb" stroke-width="0.5"/>
  <rect x="410" y="330" width="40" height="40" fill="white" stroke="#bbb" stroke-width="0.5"/>
  <rect x="450" y="330" width="40" height="40" fill="white" stroke="#bbb" stroke-width="0.5"/>
  <rect x="490" y="330" width="40" height="40" fill="white" stroke="#bbb" stroke-width="0.5"/>
  <rect x="530" y="330" width="40" height="40" fill="white" stroke="#bbb" stroke-width="0.5"/>

  <!-- ================================ -->
  <!--   SAFE STAR CELLS (★)            -->
  <!-- ================================ -->

  <!-- Safe stars on path intersections -->
  <!-- Top-left corner of path (Row 2, Col 6) -->
  <rect x="250" y="90" width="40" height="40" fill="#FFF9C4" stroke="#F9A825" stroke-width="1"/>
  <text x="270" y="116" text-anchor="middle" font-size="20" fill="#F9A825">★</text>

  <!-- Top-right (Row 2, Col 8) -->
  <rect x="330" y="130" width="40" height="40" fill="#FFF9C4" stroke="#F9A825" stroke-width="1"/>
  <text x="350" y="156" text-anchor="middle" font-size="20" fill="#F9A825">★</text>

  <!-- Left side (Row 6, Col 2) -->
  <rect x="90" y="250" width="40" height="40" fill="#FFF9C4" stroke="#F9A825" stroke-width="1"/>
  <text x="110" y="276" text-anchor="middle" font-size="20" fill="#F9A825">★</text>

  <!-- Left side (Row 8, Col 1) -->
  <rect x="50" y="330" width="40" height="40" fill="#FFF9C4" stroke="#F9A825" stroke-width="1"/>
  <text x="70" y="356" text-anchor="middle" font-size="20" fill="#F9A825">★</text>

  <!-- Right side (Row 6, Col 12) -->
  <rect x="490" y="250" width="40" height="40" fill="#FFF9C4" stroke="#F9A825" stroke-width="1"/>
  <text x="510" y="276" text-anchor="middle" font-size="20" fill="#F9A825">★</text>

  <!-- Right side (Row 8, Col 13) -->
  <rect x="530" y="330" width="40" height="40" fill="#FFF9C4" stroke="#F9A825" stroke-width="1"/>
  <text x="550" y="356" text-anchor="middle" font-size="20" fill="#F9A825">★</text>

  <!-- Bottom (Row 12, Col 6) -->
  <rect x="250" y="490" width="40" height="40" fill="#FFF9C4" stroke="#F9A825" stroke-width="1"/>
  <text x="270" y="516" text-anchor="middle" font-size="20" fill="#F9A825">★</text>

  <!-- Bottom (Row 12, Col 8) -->
  <rect x="330" y="450" width="40" height="40" fill="#FFF9C4" stroke="#F9A825" stroke-width="1"/>
  <text x="350" y="476" text-anchor="middle" font-size="20" fill="#F9A825">★</text>

  <!-- ================================ -->
  <!--   COLORED HOME COLUMNS           -->
  <!-- ================================ -->

  <!-- BLUE home stretch - Col 7, rows 1-5 (going to center) -->
  <rect x="290" y="50"  width="40" height="40" fill="#4A90D9" opacity="0.85" stroke="#2563B0" stroke-width="0.8"/>
  <rect x="290" y="90"  width="40" height="40" fill="#4A90D9" opacity="0.85" stroke="#2563B0" stroke-width="0.8"/>
  <rect x="290" y="130" width="40" height="40" fill="#4A90D9" opacity="0.85" stroke="#2563B0" stroke-width="0.8"/>
  <rect x="290" y="170" width="40" height="40" fill="#4A90D9" opacity="0.85" stroke="#2563B0" stroke-width="0.8"/>
  <rect x="290" y="210" width="40" height="40" fill="#4A90D9" opacity="0.85" stroke="#2563B0" stroke-width="0.8"/>

  <!-- RED home stretch - Row 7, cols 9-13 -->
  <rect x="370" y="290" width="40" height="40" fill="#E53935" opacity="0.85" stroke="#B71C1C" stroke-width="0.8"/>
  <rect x="410" y="290" width="40" height="40" fill="#E53935" opacity="0.85" stroke="#B71C1C" stroke-width="0.8"/>
  <rect x="450" y="290" width="40" height="40" fill="#E53935" opacity="0.85" stroke="#B71C1C" stroke-width="0.8"/>
  <rect x="490" y="290" width="40" height="40" fill="#E53935" opacity="0.85" stroke="#B71C1C" stroke-width="0.8"/>
  <rect x="530" y="290" width="40" height="40" fill="#E53935" opacity="0.85" stroke="#B71C1C" stroke-width="0.8"/>

  <!-- YELLOW home stretch - Col 7, rows 9-13 -->
  <rect x="290" y="370" width="40" height="40" fill="#D4A017" opacity="0.85" stroke="#B8860B" stroke-width="0.8"/>
  <rect x="290" y="410" width="40" height="40" fill="#D4A017" opacity="0.85" stroke="#B8860B" stroke-width="0.8"/>
  <rect x="290" y="450" width="40" height="40" fill="#D4A017" opacity="0.85" stroke="#B8860B" stroke-width="0.8"/>
  <rect x="290" y="490" width="40" height="40" fill="#D4A017" opacity="0.85" stroke="#B8860B" stroke-width="0.8"/>
  <rect x="290" y="530" width="40" height="40" fill="#D4A017" opacity="0.85" stroke="#B8860B" stroke-width="0.8"/>

  <!-- GREEN home stretch - Row 7, cols 1-5 -->
  <rect x="10"  y="290" width="40" height="40" fill="#2E9E4F" opacity="0.85" stroke="#1B6B32" stroke-width="0.8"/>
  <rect x="50"  y="290" width="40" height="40" fill="#2E9E4F" opacity="0.85" stroke="#1B6B32" stroke-width="0.8"/>
  <rect x="90"  y="290" width="40" height="40" fill="#2E9E4F" opacity="0.85" stroke="#1B6B32" stroke-width="0.8"/>
  <rect x="130" y="290" width="40" height="40" fill="#2E9E4F" opacity="0.85" stroke="#1B6B32" stroke-width="0.8"/>
  <rect x="170" y="290" width="40" height="40" fill="#2E9E4F" opacity="0.85" stroke="#1B6B32" stroke-width="0.8"/>

  <!-- ================================ -->
  <!--   CENTER STAR / FINISH           -->
  <!-- ================================ -->

  <!-- Center area background -->
  <rect x="250" y="250" width="120" height="120" fill="#DDE3EA"/>

  <!-- 4 triangles pointing to center -->
  <!-- Blue triangle (top) -->
  <polygon points="250,250 370,250 310,310" fill="#4A90D9"/>
  <!-- Red triangle (right) -->
  <polygon points="370,250 370,370 310,310" fill="#E53935"/>
  <!-- Yellow triangle (bottom) -->
  <polygon points="250,370 370,370 310,310" fill="#D4A017"/>
  <!-- Green triangle (left) -->
  <polygon points="250,250 250,370 310,310" fill="#2E9E4F"/>

  <!-- Center diamond -->
  <rect x="291" y="291" width="38" height="38"
        rx="4" ry="4"
        fill="url(#centerGrad)"
        transform="rotate(45 310 310)"
        stroke="white"
        stroke-width="2"/>

  <!-- Center circle -->
  <circle cx="310" cy="310" r="18"
          fill="white"
          stroke="#ccc"
          stroke-width="1.5"/>
  <circle cx="310" cy="310" r="8"
          fill="#DDE3EA"/>

  <!-- Center rotating animation -->
  <circle cx="310" cy="310" r="18" fill="none"
          stroke="rgba(150,150,150,0.4)" stroke-width="2"
          stroke-dasharray="15 45">
    <animateTransform attributeName="transform" type="rotate"
                      from="0 310 310" to="360 310 310"
                      dur="6s" repeatCount="indefinite"/>
  </circle>

  <!-- ================================ -->
  <!--   ENTRY CELLS (Colored)          -->
  <!-- ================================ -->

  <!-- Blue entry - Row 6, Col 6 (top-left of center) -->
  <rect x="250" y="250" width="40" height="40"
        fill="#4A90D9" stroke="#2563B0" stroke-width="1.5"/>
  <text x="270" y="276" text-anchor="middle" font-size="18" fill="white">★</text>

  <!-- Red entry - Row 6, Col 8 (top-right) -->
  <rect x="330" y="250" width="40" height="40"
        fill="#E53935" stroke="#B71C1C" stroke-width="1.5"/>
  <text x="350" y="276" text-anchor="middle" font-size="18" fill="white">★</text>

  <!-- Yellow entry - Row 8, Col 8 (bottom-right) -->
  <rect x="330" y="330" width="40" height="40"
        fill="#D4A017" stroke="#B8860B" stroke-width="1.5"/>
  <text x="350" y="356" text-anchor="middle" font-size="18" fill="white">★</text>

  <!-- Green entry - Row 8, Col 6 (bottom-left) -->
  <rect x="250" y="330" width="40" height="40"
        fill="#2E9E4F" stroke="#1B6B32" stroke-width="1.5"/>
  <text x="270" y="356" text-anchor="middle" font-size="18" fill="white">★</text>

  <!-- ================================ -->
  <!--   STARTING POSITIONS (Circles)   -->
  <!-- ================================ -->

  <!-- Blue start - Row 6, Col 1 -->
  <circle cx="30" cy="270" r="14" fill="white" stroke="#4A90D9" stroke-width="2.5"/>
  <circle cx="30" cy="270" r="8"  fill="#4A90D9"/>

  <!-- Red start - Row 2, Col 8 -->
  <circle cx="570" cy="270" r="14" fill="white" stroke="#E53935" stroke-width="2.5"/>
  <circle cx="570" cy="270" r="8"  fill="#E53935"/>

  <!-- Yellow start - Row 8, Col 13 -->
  <circle cx="570" cy="350" r="14" fill="white" stroke="#D4A017" stroke-width="2.5"/>
  <circle cx="570" cy="350" r="8"  fill="#D4A017"/>

  <!-- Green start - Row 8, Col 1 -->
  <circle cx="30" cy="350" r="14" fill="white" stroke="#2E9E4F" stroke-width="2.5"/>
  <circle cx="30" cy="350" r="8"  fill="#2E9E4F"/>

  <!-- ================================ -->
  <!--   BOARD BORDER GLOW ANIMATION    -->
  <!-- ================================ -->
  <rect x="5" y="5" width="590" height="590"
        rx="20" ry="20"
        fill="none"
        stroke="#4488FF"
        stroke-width="3">
    <animate attributeName="stroke-opacity" values="1;0.3;1" dur="4s" repeatCount="indefinite"/>
    <animate attributeName="stroke-width"   values="3;6;3"   dur="4s" repeatCount="indefinite"/>
  </rect>

</svg>